<svg aria-hidden="true" style="width: 0; height: 0; position: absolute; overflow: hidden" version="1.1" xmlns="http://www.w3.org/2000/svg" xmlns:xlink="http://www.w3.org/1999/xlink">
    
   
    <symbol id="icon-html" viewBox="0 0 80 80" width="80" height="80">
        <path d="M80 0L72.7118 71.9918L39.9511 80L7.28062 72.0028L0 0H80Z" fill="#E44D26"></path>
        <path d="M40 73.8787L66.4724 67.4076L72.7002 5.88718H40V73.8787Z" fill="#F16529"></path>
        <path d="M40.0003 40.8264H52.3329L51.1701 52.2794L40 54.9377V64.125L60.5317 59.1077L60.6822 57.6157L63.036 34.3669L63.2803 31.9955H40.0003V40.8264ZM40.0003 22.931V22.9526H64.1916L64.3923 20.9678L64.8489 16.4909L65.0882 14.1217H40.0003V22.931Z" fill="white"></path>
        <path d="M25.832 23.5492H40V14.7184H14.8867L15.1263 17.0875L17.588 41.423H40V32.5921H26.7473L25.832 23.5492ZM28.0892 45.8386H18.0355L19.4385 59.7044L39.9539 64.7257L40 64.7147V55.5269L39.9561 55.5371L28.8023 52.8815L28.0892 45.8386Z" fill="#EBEBEB"></path>
    </symbol>

    <symbol id="icon-css" viewBox="0 0 80 80" width="80" height="80">
        <path d="M73.3333 5.71429H40V75.7143L66.6667 68.5714L73.3333 5.71429Z" fill="#33AADD"></path>
        <path d="M6.66667 71.4286L0 0H80L73.3333 71.4286L40 80L6.66667 71.4286Z" fill="#1172B8"></path>
        <path d="M51.6667 41.4286H18.3333L16.6667 31.4286L43.3333 24.2857H16.6667L15 15.7143H66.6667L65 25.7143L43.3333 32.8572H63.3333L60 60L40 65.7143L20 60L18.3333 45.7143H28.3333L30 52.8572L40 55.7143L50 52.8572L51.6667 41.4286Z" fill="white"></path>
    </symbol>

    <symbol id="icon-sql" viewBox="0 0 80 80" width="80" height="80">
        <path d="M25.2414 79.9491C17.7457 79.4093 10.3373 77.5244 5.79374 75.001C3.20574 73.5638 1.23404 71.7974 0.460335 70.2231L0 69.2864V39.9057V10.5251L0.36426 9.78617C1.99208 6.48445 7.18719 3.50794 14.4393 1.722C16.901 1.11571 20.4549 0.511943 23.3542 0.207486C26.3147 -0.103485 34.1619 -0.0561732 37.1151 0.290913C44.9641 1.21217 51.643 3.27464 55.759 6.04824C57.3463 7.11784 58.9751 8.8293 59.5269 10.0074L60 11.0174L59.9595 40.3092L59.919 69.6011L59.5392 70.3719C59.3304 70.7958 58.6995 71.6298 58.1373 72.2251C54.7148 75.8497 47.3735 78.531 37.7442 79.6734C35.7816 79.9063 27.255 80.0941 25.2414 79.9491ZM39.0547 54.7738C39.0259 54.6987 37.9054 53.7015 36.5647 52.5576C35.224 51.4137 34.0693 50.424 33.9987 50.3583C33.9281 50.2926 34.1758 50.06 34.5491 49.8413C34.9225 49.6227 35.6377 49.0145 36.1386 48.4897C37.6035 46.9552 38.2946 45.0596 38.2946 42.5767C38.2946 40.1324 37.5492 38.1602 36.0562 36.6547C34.5515 35.1372 32.8239 34.4852 30.3079 34.4852C26.4298 34.4852 23.4515 36.7459 22.5008 40.411C22.1738 41.6717 22.1756 44.2191 22.5043 45.337C23.3615 48.2528 25.6964 50.3705 28.6023 50.8678C29.5856 51.0361 29.7188 51.1086 30.3892 51.8409C30.7877 52.276 31.6052 53.1447 32.2061 53.7712L33.2986 54.9103H36.2029C37.8003 54.9103 39.0836 54.8489 39.0547 54.7738ZM29.0948 46.6499C28.3956 46.2857 28.1313 46.003 27.7326 45.1933C27.4246 44.5678 27.372 44.2121 27.3685 42.7339C27.3651 41.2318 27.4129 40.9072 27.7345 40.255C28.2605 39.1877 28.9854 38.6824 30.1069 38.6014C31.6678 38.4882 32.5689 39.2536 33.0411 41.0929C33.6201 43.348 32.9834 45.7456 31.5943 46.5413C30.8655 46.9587 29.7784 47.006 29.0948 46.6499ZM16.2217 50.8358C19.2667 50.2589 20.9952 48.4898 20.9952 45.9502C20.9952 43.6972 19.8792 42.3844 16.795 41.0088C15.0294 40.2214 14.3899 39.7271 14.3899 39.1497C14.3899 38.671 14.9968 38.1465 15.7033 38.0148C16.3932 37.8861 18.2228 38.2035 19.3032 38.6395L20.2089 39.0051V37.0023V34.9995L19.2259 34.7816C18.6184 34.647 17.3419 34.5662 15.884 34.5704C13.8188 34.5704 13.4144 34.6206 12.6372 34.929C10.3671 35.8293 9.28987 37.363 9.3071 39.6701C9.32323 41.8299 10.4637 43.1771 13.3021 44.3891C14.9768 45.1042 15.6481 45.6487 15.6481 46.2922C15.6481 47.6596 13.3675 47.8279 10.9529 46.6386C10.2916 46.3129 9.69748 46.0199 9.63261 45.9875C9.56775 45.955 9.51468 46.8906 9.51468 48.0665C9.51468 50.195 9.51695 50.2052 9.90268 50.3519C11.3553 50.9037 14.5658 51.1495 16.2217 50.8358ZM51.0333 48.8613V47.0545H48.2811H45.5289V40.8484V34.6423H43.0913H40.6536V42.6552V50.6681H45.8434H51.0333V48.8613ZM34.0484 17.1984C38.8924 16.8628 42.5235 16.229 45.7188 15.1617C48.902 14.0984 50.7825 12.8118 51.2031 11.4093C51.3651 10.8688 51.3535 10.6638 51.1271 10.0713C50.1115 7.41468 44.4384 5.37362 35.7695 4.54607C32.0613 4.19202 25.3174 4.30679 21.7817 4.78394C16.3868 5.51217 12.0085 6.86482 10.0617 8.40482C6.12364 11.5203 10.2882 14.9468 19.973 16.5596C24.1723 17.2589 29.6128 17.5058 34.0484 17.1984Z" fill="#00BCF2"></path>
    </symbol>
   
    <symbol id="icon-powerbi" viewBox="0 0 80 80" width="80" height="80"> <rect x="32.3077" width="27.6923" height="80" rx="3" fill="url('#paint0_linear_2_45')"></rect>
        <rect x="14" y="20" width="27.6923" height="60" rx="3" fill="url('#paint1_linear_2_45')"></rect>
        <rect y="40" width="27.6923" height="40" rx="3" fill="url('#paint2_linear_2_45')"></rect>
        <defs>
        <linearGradient id="paint0_linear_2_45" x1="32.3077" y1="0" x2="64.0303" y2="72.2299" gradientUnits="userSpaceOnUse">
        <stop stop-color="#E6AD10"></stop>
        <stop offset="1" stop-color="#C87E0E"></stop>
        </linearGradient>
        <linearGradient id="paint1_linear_2_45" x1="14" y1="20" x2="41.6923" y2="75.3846" gradientUnits="userSpaceOnUse">
        <stop stop-color="#F6D751"></stop>
        <stop offset="1" stop-color="#E6AD10"></stop>
        </linearGradient>
        <linearGradient id="paint2_linear_2_45" x1="-7.70275e-08" y1="47" x2="30.1329" y2="77.5964" gradientUnits="userSpaceOnUse">
        <stop stop-color="#F9E589"></stop>
        <stop offset="1" stop-color="#F6D751"></stop>
        </linearGradient>
        </defs></symbol>
    <symbol id="icon-powerauto" viewBox="0 0 80 80" width="80" height="80">
        <path d="M3.1647 0.940994H3.15708C0.450921 0.940994 -0.99554 4.87534 0.79205 7.38393L24.772 41.0103L53.1086 1.45305C52.6493 1.21581 52.1538 1.07723 51.645 1.07488L3.1647 0.940994Z" fill="url('#paint0_linear_1_8')"></path>
<path d="M78.5465 36.2703L66.8052 19.8634L23.7849 80.941L51.9823 80.9175C52.9466 80.8095 53.8499 80.2763 54.4959 79.372L78.5465 45.7644C80.4884 43.0538 80.4884 38.9832 78.5465 36.2703Z" fill="url('#paint1_linear_1_8')"></path>
<path d="M66.8051 19.8611L54.494 2.66274C54.1091 2.12485 53.6326 1.72085 53.1085 1.45073L24.772 41.0103L0.868241 74.3994C-0.944123 76.9315 0.502338 80.9034 3.23137 80.934L23.7848 80.9175L66.8051 19.8611Z" fill="url('#paint2_linear_1_8')"></path>
<defs>
<linearGradient id="paint0_linear_1_8" x1="13.8731" y1="-12.2573" x2="47.6708" y2="17.4646" gradientUnits="userSpaceOnUse">
<stop stop-color="#196DE5"></stop>
<stop offset="1" stop-color="#1351C8"></stop>
</linearGradient>
<linearGradient id="paint1_linear_1_8" x1="46.3527" y1="48.5478" x2="61.9257" y2="69.711" gradientUnits="userSpaceOnUse">
<stop stop-color="#70BCFD"></stop>
<stop offset="1" stop-color="#4A9FF9"></stop>
</linearGradient>
<linearGradient id="paint2_linear_1_8" x1="27.0284" y1="39.5258" x2="52.3" y2="64.4761" gradientUnits="userSpaceOnUse">
<stop stop-color="#4D9FFF"></stop>
<stop offset="1" stop-color="#1667EB"></stop>
</linearGradient>
</defs>
    </symbol>
<symbol id="icon-2018" viewBox="0 0 118 41" width="80" height="80">
    <rect y="3" width="76" height="35" fill="#5C5F61"></rect>
    <path d="M117.95 20.35L75.2374 37.9736V2.72638L117.95 20.35Z" fill="#5C5F61"></path>
    <path d="M22.7045 14.42C24.2378 14.42 25.3045 14.8 25.9045 15.56C26.5045 16.3067 26.8045 17.1333 26.8045 18.04C26.8045 18.84 26.5778 19.5733 26.1245 20.24C25.6845 20.9067 24.9778 21.64 24.0045 22.44L22.1045 24.02H27.0445L27.3845 26H18.6845V24.26L22.6045 20.82C23.3511 20.1667 23.8511 19.6467 24.1045 19.26C24.3578 18.86 24.4845 18.4533 24.4845 18.04C24.4845 17.6133 24.3245 17.2533 24.0045 16.96C23.6845 16.6667 23.2378 16.52 22.6645 16.52C22.1711 16.52 21.6045 16.7 20.9645 17.06C20.3245 17.42 19.9845 17.6067 19.9445 17.62L18.8245 15.86C19.1978 15.5667 19.7045 15.2533 20.3445 14.92C20.9845 14.5867 21.7711 14.42 22.7045 14.42ZM29.2607 20.3C29.2607 18.4733 29.754 17.04 30.7407 16C31.7274 14.9467 32.9607 14.42 34.4407 14.42C35.934 14.42 37.1607 14.9267 38.1207 15.94C39.094 16.9533 39.5807 18.3933 39.5807 20.26C39.5807 22.1 39.0807 23.56 38.0807 24.64C37.094 25.72 35.874 26.26 34.4207 26.26C32.954 26.26 31.7274 25.74 30.7407 24.7C29.754 23.6467 29.2607 22.18 29.2607 20.3ZM31.6407 20.24C31.6407 21.48 31.914 22.4267 32.4607 23.08C33.0207 23.72 33.6807 24.04 34.4407 24.04C35.174 24.04 35.8207 23.72 36.3807 23.08C36.954 22.44 37.2407 21.5267 37.2407 20.34C37.2407 19.1133 36.9607 18.1867 36.4007 17.56C35.854 16.9333 35.194 16.62 34.4207 16.62C33.674 16.62 33.0207 16.9333 32.4607 17.56C31.914 18.1733 31.6407 19.0667 31.6407 20.24ZM41.9821 24.2H44.1621V17.66L43.1221 18.26L41.9021 16.5L45.0221 14.68H46.7621V24.2H48.3021L48.5221 26H42.1821L41.9821 24.2ZM59.8884 22.3C59.8884 23.38 59.475 24.3133 58.6484 25.1C57.835 25.8733 56.7084 26.26 55.2684 26.26C53.8017 26.26 52.655 25.8733 51.8284 25.1C51.015 24.3133 50.6084 23.38 50.6084 22.3C50.6084 21.62 50.8417 20.98 51.3084 20.38C51.775 19.78 52.2884 19.3867 52.8484 19.2C52.3417 18.9733 51.9284 18.6333 51.6084 18.18C51.2884 17.7133 51.1284 17.2 51.1284 16.64C51.1284 15.6933 51.495 14.8733 52.2284 14.18C52.975 13.4867 53.9884 13.14 55.2684 13.14C56.535 13.14 57.535 13.4867 58.2684 14.18C59.015 14.8733 59.3884 15.6933 59.3884 16.64C59.3884 17.2 59.2217 17.7133 58.8884 18.18C58.5684 18.6333 58.155 18.9733 57.6484 19.2C58.2084 19.3867 58.7217 19.78 59.1884 20.38C59.655 20.98 59.8884 21.62 59.8884 22.3ZM53.4484 16.68C53.4484 17.12 53.6017 17.48 53.9084 17.76C54.2284 18.0267 54.6817 18.2067 55.2684 18.3C55.855 18.2067 56.295 18.02 56.5884 17.74C56.895 17.46 57.0484 17.0933 57.0484 16.64C57.0484 16.2667 56.875 15.9467 56.5284 15.68C56.1817 15.4 55.7484 15.26 55.2284 15.26C54.735 15.26 54.315 15.4 53.9684 15.68C53.6217 15.96 53.4484 16.2933 53.4484 16.68ZM52.9484 22.34C52.9484 22.9133 53.1817 23.36 53.6484 23.68C54.1284 24 54.6617 24.16 55.2484 24.16C55.8217 24.16 56.3484 24 56.8284 23.68C57.3217 23.36 57.5684 22.9133 57.5684 22.34C57.5684 21.86 57.3684 21.42 56.9684 21.02C56.5817 20.62 56.015 20.36 55.2684 20.24C54.495 20.36 53.915 20.62 53.5284 21.02C53.1417 21.42 52.9484 21.86 52.9484 22.34Z" fill="#F8F9F8"></path>
</symbol>
<symbol id="icon-2021" width="118" height="41" viewBox="0 0 118 41" fill="none" xmlns="http://www.w3.org/2000/svg">
    <rect y="3" width="76" height="35" fill="#5C5F61"></rect>
<path d="M117.95 20.35L75.2374 37.9736V2.72638L117.95 20.35Z" fill="#5C5F61"></path>
<path d="M22.172 15.42C23.7053 15.42 24.772 15.8 25.372 16.56C25.972 17.3067 26.272 18.1333 26.272 19.04C26.272 19.84 26.0453 20.5733 25.592 21.24C25.152 21.9067 24.4453 22.64 23.472 23.44L21.572 25.02H26.512L26.852 27H18.152V25.26L22.072 21.82C22.8187 21.1667 23.3187 20.6467 23.572 20.26C23.8253 19.86 23.952 19.4533 23.952 19.04C23.952 18.6133 23.792 18.2533 23.472 17.96C23.152 17.6667 22.7053 17.52 22.132 17.52C21.6387 17.52 21.072 17.7 20.432 18.06C19.792 18.42 19.452 18.6067 19.412 18.62L18.292 16.86C18.6653 16.5667 19.172 16.2533 19.812 15.92C20.452 15.5867 21.2387 15.42 22.172 15.42ZM28.7282 21.3C28.7282 19.4733 29.2216 18.04 30.2082 17C31.1949 15.9467 32.4282 15.42 33.9082 15.42C35.4016 15.42 36.6282 15.9267 37.5882 16.94C38.5616 17.9533 39.0482 19.3933 39.0482 21.26C39.0482 23.1 38.5482 24.56 37.5482 25.64C36.5616 26.72 35.3416 27.26 33.8882 27.26C32.4216 27.26 31.1949 26.74 30.2082 25.7C29.2216 24.6467 28.7282 23.18 28.7282 21.3ZM31.1082 21.24C31.1082 22.48 31.3816 23.4267 31.9282 24.08C32.4882 24.72 33.1482 25.04 33.9082 25.04C34.6416 25.04 35.2882 24.72 35.8482 24.08C36.4216 23.44 36.7082 22.5267 36.7082 21.34C36.7082 20.1133 36.4282 19.1867 35.8682 18.56C35.3216 17.9333 34.6616 17.62 33.8882 17.62C33.1416 17.62 32.4882 17.9333 31.9282 18.56C31.3816 19.1733 31.1082 20.0667 31.1082 21.24ZM44.7696 15.42C46.303 15.42 47.3696 15.8 47.9696 16.56C48.5696 17.3067 48.8696 18.1333 48.8696 19.04C48.8696 19.84 48.643 20.5733 48.1896 21.24C47.7496 21.9067 47.043 22.64 46.0696 23.44L44.1696 25.02H49.1096L49.4496 27H40.7496V25.26L44.6696 21.82C45.4163 21.1667 45.9163 20.6467 46.1696 20.26C46.423 19.86 46.5496 19.4533 46.5496 19.04C46.5496 18.6133 46.3896 18.2533 46.0696 17.96C45.7496 17.6667 45.303 17.52 44.7296 17.52C44.2363 17.52 43.6696 17.7 43.0296 18.06C42.3896 18.42 42.0496 18.6067 42.0096 18.62L40.8896 16.86C41.263 16.5667 41.7696 16.2533 42.4096 15.92C43.0496 15.5867 43.8363 15.42 44.7696 15.42ZM51.6059 25.2H53.7859V18.66L52.7459 19.26L51.5259 17.5L54.6459 15.68H56.3859V25.2H57.9259L58.1459 27H51.8059L51.6059 25.2Z" fill="#F8F9F8"></path>
</symbol>
</svg>

